<?xml version="1.0" encoding="utf-8"?>
<!-- Generator: Adobe Illustrator 24.1.2, SVG Export Plug-In . SVG Version: 6.00 Build 0)  -->
<svg version="1.1" id="_x33_0" xmlns="http://www.w3.org/2000/svg" xmlns:xlink="http://www.w3.org/1999/xlink" x="0px" y="0px"
	 viewBox="0 0 1448.8 586.7" style="enable-background:new 0 0 1448.8 586.7;" xml:space="preserve">
<style type="text/css">
	.st0{fill:#4FC1E9;}
	.st1{fill:#CCD1D9;}
	.st2{fill:#AAB2BD;}
	.st3{fill:#EFCCA3;}
	.st4{fill:#CCAC8D;}
	.st5{fill:#FFFFFF;}
	.st6{fill:#56332B;}
	.st7{fill:#442823;}
	.st8{fill:#7F4A41;}
	.st9{fill:#331712;}
	.st10{fill:#FAB631;stroke:#FFFFFF;stroke-width:2;stroke-miterlimit:10;}
</style>
<g>
	<g>
		<g>
			<g>
				<path class="st0" d="M471,444.7l-22.5,89.2c-1.1,4.2-5.5,7.2-10.5,7.2H262.1c-5,0-9.4-3-10.5-7.2L229,444.7l-5-19.7
					c-1.8-7.5-2.8-15-2.8-22.6c0-10.5,1.8-20.9,5.4-31l26.7-75.2c1.3-0.5,2.7-1,4.1-1.3l39-8.3V323c0,10,9.7,18.2,21.5,18.2h64.4
					c11.8,0,21.5-8.2,21.5-18.2v-36.4l39,8.3c1.4,0.3,2.8,0.7,4.1,1.3l26.7,75.2c3.5,10.1,5.4,20.5,5.4,31c0,7.6-1,15.2-2.8,22.6
					L471,444.7z"/>
			</g>
			<g>
				<path class="st1" d="M113.9,250.2c0,10,9.7,18.2,21.5,18.2h-21.5h-43V232h42.9L113.9,250.2L113.9,250.2z"/>
			</g>
			<g>
				<path class="st1" d="M280.6,232c9.7,9.1,22.8,15.4,37.7,17.4l-11.2,18.9H178.3c11.8,0,21.5-8.2,21.5-18.2V232H280.6z"/>
			</g>
			<g>
				<path class="st1" d="M521.7,268.4H392.9l-11.2-18.9c14.9-2,28-8.4,37.7-17.4h80.8v18.2C500.3,260.2,509.9,268.4,521.7,268.4
					L521.7,268.4z"/>
			</g>
			<g>
				<path class="st1" d="M629.1,232v36.4h-42.9h-21.5c11.8,0,21.5-8.2,21.5-18.2V232H629.1z"/>
			</g>
			<g>
				<path class="st2" d="M70.9,268.4v45.4c0,5-4.8,9.1-10.7,9.1H38.7c-5.9,0-10.7-4.1-10.7-9.1V186.6c0-5,4.8-9.1,10.7-9.1h21.5
					c5.9,0,10.7,4.1,10.7,9.1V232V268.4z"/>
			</g>
			<g>
				<path class="st2" d="M672,186.6v127.2c0,5-4.8,9.1-10.7,9.1h-21.5c-5.9,0-10.7-4.1-10.7-9.1v-45.4V232v-45.4
					c0-5,4.8-9.1,10.7-9.1h21.5C667.2,177.5,672,181.6,672,186.6z"/>
			</g>
			<g>
				<path class="st3" d="M586.1,268.4l16.3,62.1c3.4,13.1,5.2,26.5,5.2,39.9c0,28.5-7.8,56.7-23,82.2l-4.1,7.1
					c-9.8,16.4-29.6,26.8-51.3,26.8c-12,0-23.3-3.1-32.6-8.6c-9.4-5.5-16.9-13.4-21-22.8l-4.6-10.4l5-19.7c1.8-7.5,2.8-15,2.8-22.6
					c0-10.5-1.8-20.9-5.4-31l-26.7-75.2c1.1,0.4,2.1,0.9,3.2,1.5l71.8,43.4v-72.7h42.9L586.1,268.4L586.1,268.4z"/>
			</g>
			<g>
				<path class="st3" d="M586.1,232v18.2c0,10-9.7,18.2-21.5,18.2h-42.9c-11.8,0-21.5-8.2-21.5-18.2V232c0-10,9.7-18.2,21.5-18.2
					h42.9C576.5,213.9,586.1,222.1,586.1,232z"/>
			</g>
			<g>
				<path class="st3" d="M392.9,268.4l10.7,18.2V323c0,10-9.7,18.2-21.5,18.2h-64.4c-11.8,0-21.5-8.2-21.5-18.2v-36.4l10.7-18.2
					l11.2-18.9c3.3,0.5,6.8,0.7,10.3,0.7h42.9c3.5,0,7-0.3,10.3-0.7L392.9,268.4z"/>
			</g>
			<g>
				<path class="st3" d="M178.3,341.1l71.8-43.4c1.1-0.6,2.1-1.2,3.2-1.5l-26.7,75.2c-3.5,10.1-5.4,20.5-5.4,31
					c0,7.6,1,15.2,2.8,22.6l5,19.7l-4.6,10.4c-4.2,9.5-11.6,17.3-21,22.8c-9.3,5.5-20.6,8.6-32.6,8.6c-21.7,0-41.5-10.4-51.3-26.8
					l-4.1-7.1c-15.1-25.5-23-53.7-23-82.2c0-13.4,1.7-26.8,5.2-39.9l16.3-62.1h21.5h42.9L178.3,341.1L178.3,341.1z"/>
			</g>
			<g>
				<path class="st3" d="M199.7,232v18.2c0,10-9.7,18.2-21.5,18.2h-42.9c-11.8,0-21.5-8.2-21.5-18.2V232c0-10,9.7-18.2,21.5-18.2
					h42.9C190.1,213.9,199.7,222.1,199.7,232z"/>
			</g>
		</g>
	</g>
	<g>
		<path class="st3" d="M480.9,109c-0.6-14.2,1.2-26.7-4.9-37.3c-14.6-26.4-51-41.9-123.7-41.9V32h-1.5h1.5v-2.3
			c-72.8,0-111,15.5-125.6,42.2c-5.8,10.9-5.2,23.2-6.1,37.3c-0.6,11.3-5.5,23.2-3.3,36.1c2.4,16.7,3.3,33.5,5.8,48.9
			c1.8,12.6,18.2,23.2,19.7,35.1c4.2,32.8,36.4,48,109.2,48v2.6h-1.8h0.3h1.8v-2.6c72.8,0,103.7-15.1,107.7-48
			c1.5-12.2,16.7-22.5,18.5-35.1c2.4-15.5,3.3-32.2,5.8-48.9C486.3,132.5,481.5,120.2,480.9,109z"/>
		<path class="st4" d="M351.1,120.5c13,0.3,22.1,9,30.6,17.1c10,9.3,27,15.8,34,23.8s16.1,16.1,19.4,28.7
			c3.3,12.6,4.2,28.7,4.2,32.8c0,4.2,2.1,3.2,8.2,0c14.3-7.4,30-27.4,30-27.4c-1.8,12.6-17.3,23.8-18.8,35.7
			c-3.6,32.8-33.7,48.6-108,48.6h-0.3l0,0h1.8"/>
		<path class="st4" d="M399,95.4c2.7,10,12.4,43.8-6.4,32.5c0,0,7.9,4.8,12.7,23.2c5.2,18.4,17.6,20.6,17.6,20.6s20.3,4.2,35.5-9.7
			c12.7-11.6,14.9-32.2,9.4-48c-5.5-15.5-15.2-20.3-29.4-23.5C424.2,87.1,395.6,84.2,399,95.4z"/>
		<g>
			<ellipse cx="435.1" cy="132.1" rx="26.7" ry="28.3"/>
			<ellipse class="st5" cx="428.1" cy="119.6" rx="7" ry="7.4"/>
		</g>
		<path class="st3" d="M394.4,130.8c0,0,24,17.4,37,34.5s12.7,20.3,12.7,20.3l-9.4,4.5c0,0-13.3-26.7-29.7-36.7
			c-16.7-10-18.5-18.4-18.5-18.4L394.4,130.8z"/>
		<path class="st4" d="M352,120.5c-13,0.3-22.7,9-31.5,17.1c-10,9.3-27.6,15.8-34.6,23.8s-16.4,16.1-19.7,28.7
			c-3.3,12.6-4.5,28.7-4.5,32.8c0,4.2,0.6,4.5-8.2,0c-14.3-7.1-30-27.4-30-27.4c1.8,12.6,17.3,23.8,18.8,35.7
			c4.2,32.8,34.3,48.6,108.6,48.6h0.3l0,0h1.2"/>
		<path class="st6" d="M422.3,175c-14.6-19-37.9-36.7-70.4-36.7h-0.3l0,0c-32.5,0-55.8,17.7-70.4,36.7c-15.2,19.6-14,27.4-14,46
			c0,67.6,22.4,48.3,37.3,56.7c15.2,8,30.9,5.5,47,5.5l0,0h0.3c16.4,0,31.8,2.3,47-5.8c14.9-8,37.3,11.9,37.3-55.7
			C436.6,203,437.5,194.6,422.3,175z"/>
		<path class="st7" d="M350.5,155c0,0-2.1,31.2-6.4,37.3l7.9-1.9L350.5,155z"/>
		<path class="st7" d="M352.6,155c0,0,2.1,31.2,6.4,37.3l-7.9-1.9L352.6,155z"/>
		<path class="st6" d="M327.1,147.6c-3-7.4,7.9-19.3,25.2-19.6c17.3,0,28.2,11.9,25.2,19.6c-3,7.7-14,10-25.2,10.3
			C341.4,157.6,330.1,155.3,327.1,147.6z"/>
		<path d="M352.3,155c0-1.3,10.3-1.6,15.8-5.5c0,0-11.2,3.9-13.6,2.3c-2.4-1.3-3-5.2-3-5.2s-0.9,3.9-2.7,5.2
			c-2.1,1.3-14.9-2.3-14.9-2.3s17,4.5,17,5.5s-0.3,4.2-0.3,6.4c0,8,0,28,1.2,29.6c1.8,2.9,1.2-21.6,1.2-29.6
			C352.6,158.9,352.6,156.3,352.3,155z"/>
		<path class="st8" d="M352.9,198.1c5.2,0,14.3,3.9,22.4,10c-7.9-9.3-17.3-15.8-22.4-15.8c-5.5,0-17,7.1-25.2,17.4
			C336.2,202.6,347.1,198.1,352.9,198.1z"/>
		<path class="st7" d="M350.8,255.1c-11.5,0-22.7-3.9-33.1-6.8c-2.1-0.6-4.2,1-6.4,0.3c-19.1-6.4-34.6-17.4-44-31.2c0,1,0,2.3,0,3.2
			c0,67.6,22.4,48.6,37.3,56.7c15.2,8,30.9,5.5,47,5.5l0,0h0.3c16.4,0,31.8,2.3,47-5.8c14.9-8,37.3,11.6,37.3-56
			c0-2.6,0-5.2,0.3-7.4c-8.8,15.1-24.9,27-44.9,34.1c-1.8,0.6-6.1-1-7.9-0.6C372.9,250.9,363.2,255.1,350.8,255.1z"/>
		<path class="st7" d="M321.9,218.7c0,0-7.6,24.1-2.4,34.8l-7-3.2C312.5,250.3,317.7,225.8,321.9,218.7z"/>
		<path class="st7" d="M382,218.7c0,0,7.6,24.1,2.4,34.8l7-3.2C391.4,250.3,385.9,225.8,382,218.7z"/>
		<path class="st4" d="M302.5,95.4c-2.7,10-12.4,43.8,6.4,32.5c0,0-7.9,4.8-12.7,23.2c-4.9,18.4-17.6,20.6-17.6,20.6
			s-20.3,4.2-35.5-9.7c-12.7-11.6-14.9-32.2-9.4-48s15.2-20.3,29.4-23.5C277.4,87.1,305.6,84.2,302.5,95.4z"/>
		<path d="M352,192.3c8.2,0,33.7,18.7,34,41.5c0-0.3,0-0.6,0-1.3c0-23.8-20.6-42.8-34-42.8c-13.3,0-34,19.3-34,42.8
			c0,0.3,0,0.6,0,1.3C318.3,211,343.8,192.3,352,192.3z"/>
		<g>
			
				<ellipse transform="matrix(0.974 -0.2264 0.2264 0.974 -23.1104 84.6538)" class="st9" cx="357.5" cy="143.1" rx="2.4" ry="4.8"/>
			
				<ellipse transform="matrix(0.2692 -0.9631 0.9631 0.2692 113.8897 436.1786)" class="st9" cx="344.4" cy="143" rx="4.8" ry="2.4"/>
		</g>
		<g>
			<ellipse cx="268" cy="132.1" rx="26.7" ry="28.3"/>
			<ellipse class="st5" cx="274.9" cy="119.6" rx="7" ry="7.4"/>
		</g>
		<g>
			<path class="st8" d="M359.9,132.5c0-0.3-7,3.2-8.8,3.5c-1.8-0.3-8.8-3.9-8.8-3.5c0,0,5.8,0,8.8,0S359.9,132.5,359.9,132.5z"/>
		</g>
		<path class="st3" d="M306.8,130.8c0,0-24,17.4-37,34.5s-12.7,20.3-12.7,20.3l9.4,4.5c0,0,13.3-26.7,29.7-36.7
			c16.4-10,18.5-18.4,18.5-18.4L306.8,130.8z"/>
		<path class="st4" d="M254.3,79.3c0,0-8.2,23.8-26.4,33.8C227.9,113.1,256.4,109.6,254.3,79.3z"/>
		<path class="st4" d="M445.7,79.3c0,0,8.2,23.8,26.4,33.8C472.1,113.1,443.6,109.6,445.7,79.3z"/>
		<path class="st4" d="M393.8,123.8c0,0-17.9-20-41.9-20.6l0,0c-0.3,0,0.6,0,0.3,0s0.3,0,0.3,0l0,0c-24.3,0.6-41.9,20.6-41.9,20.6
			c20.9-15.5,38.8-15.1,41.9-15.1l0,0l0,0l0,0l0,0C352.3,108.6,372.9,108.3,393.8,123.8z"/>
		<path class="st4" d="M372.9,81.9c0,0-9.1-13.5-21.2-13.8l0,0h0.3h0.3l0,0c-9.1,0.3-20.9,13.8-20.9,13.8
			c10.3-10.6,20.9-10.3,20.9-10.3l0,0l0,0l0,0l0,0C352.3,71.6,362.3,71.3,372.9,81.9z"/>
		<path class="st4" d="M268,180.8c0,0-14.3,7.4-24.6,2.9l0,0h-0.3l0,0l0,0c-9.1-5.5-13.6-21.9-13.6-21.9S238.5,190.7,268,180.8z"/>
		<path class="st4" d="M434.2,180.8c0,0,14.3,7.4,24.6,2.9l0,0l0,0l0,0l0,0c12.1-5.5,14-21.9,14-21.9S463.6,190.7,434.2,180.8z"/>
		<g>
			<path class="st4" d="M284.3,77.7c7.9-1.6,20.9-1.9,31.2,1.6c13,4.8,2.4,22.5,5.2,23.5s6.4-12.2,30.6-10.9
				c24.6,1.3,27.3,12.9,30.6,10.9c3.3-1.9-3.3-32.2,33.4-25.1c0,0-38.5-10.9-36.7,18.7c0,0-22.1-18-53.1-1.9
				C325.9,94.5,333.8,66.8,284.3,77.7z"/>
		</g>
		<path class="st4" d="M418.7,77.7c0.6,0,0.9,0.3,1.2,0.3C420.2,78,419.6,77.7,418.7,77.7z"/>
		<path class="st4" d="M418.7,77.7L418.7,77.7L418.7,77.7z"/>
		<path class="st4" d="M273.7,38.1c0,0-32.8,43.8-37.6,60.5c-4.9,17.1-8.5,86.9-12.7,96.9l-15.2-68.9l27.9-71.8L273.7,38.1z"/>
		<path class="st4" d="M427.8,38.1c0,0,32.8,43.8,37.6,60.5c4.9,17.1,8.5,86.9,12.7,96.9l15.2-68.9l-27.9-71.8L427.8,38.1z"/>
		<path class="st6" d="M426.3,38.1c0,0,35.2,31.2,45.5,67.3s6.1,79.9,14,85.3c11.2,7.7,24-38.3,28.2-43.1
			c6.7-7.7,28.8-27.4,30.3-30.9s-44.9-57.3-65.2-67.9C454.5,36.5,424.2,35.5,426.3,38.1z"/>
		<path class="st7" d="M456.3,57.4c0,0,41.6,56.3,40.9,126.5l16.7-36.1C513.6,147.9,499.1,101.9,456.3,57.4z"/>
		<path class="st6" d="M273.7,38.1c0,0-35.2,31.2-45.5,67.3s-6.1,79.9-14,85.3c-11.2,7.7-24-38.3-28.2-43.1
			c-6.7-7.7-28.8-27.4-30.3-30.9s44.9-57.3,65.2-67.9C245.5,36.5,275.8,35.5,273.7,38.1z"/>
		<path class="st7" d="M243.7,57.4c0,0-41.6,56.3-40.9,126.5l-16.4-36.1C186.4,147.9,200.9,101.9,243.7,57.4z"/>
		<path class="st4" d="M221.2,185.3c0,0,3,17.4,7.9,22.9s1.5-4.2,1.5-4.2s-5.2-2.9-4.2-25.1C227.3,156.6,221.2,185.3,221.2,185.3z"
			/>
		<path class="st4" d="M480,185.3c0,0-3,17.4-7.9,22.9s-1.5-4.2-1.5-4.2s5.2-2.9,4.2-25.1S480,185.3,480,185.3z"/>
		<g>
			<ellipse class="st7" cx="320.4" cy="172.1" rx="2.4" ry="2.6"/>
			<ellipse class="st7" cx="306.5" cy="187.5" rx="2.4" ry="2.6"/>
			<ellipse class="st7" cx="301.9" cy="172.1" rx="2.4" ry="2.6"/>
		</g>
		<g>
			<ellipse class="st7" cx="379.6" cy="172.1" rx="2.4" ry="2.6"/>
			<ellipse class="st7" cx="393.5" cy="187.5" rx="2.4" ry="2.6"/>
			<ellipse class="st7" cx="398.1" cy="172.1" rx="2.4" ry="2.6"/>
		</g>
	</g>
</g>
<g>
	<path class="st6" d="M826.7,400.9h-12.8v33.3h-17.5v-89h29.5c15,0,25.7,8.7,25.7,27.9C851.7,393.2,842.4,400.9,826.7,400.9z
		 M825.3,365.3H814v15.6h11.4c5,0,8.9-0.9,8.9-7.8C834.1,366.6,830.2,365.3,825.3,365.3z"/>
	<path class="st6" d="M911.9,434.2h-13.5l-0.7-1.5c-2.5,1.5-5.3,2.5-8.2,2.5c-14.8,0-22.6-11-22.6-27.8v-36.8h16.5V406
		c0,5.3,0.8,9.5,6.2,9.5c3.7,0,5.4-3,5.4-7.1v-37.7h16.5v63.5H911.9z"/>
	<path class="st6" d="M987.2,383.3v50.9h-14.6v-4.6c-3.7,4.4-8.3,5.6-13.4,5.6c-22.1,0-31-22.1-31-45.5c0-23.8,8.9-45.5,31.4-45.5
		c12.4,0,19.4,6,26.6,17.9l-12.2,13.4c-3.8-6.2-7.4-10.3-14.4-10.3c-11.9,0-13.9,13.1-13.9,24.6c0,11.6,2.1,24.6,14.2,24.6
		c6.9,0,9.9-6,9.9-13h-12.2v-18L987.2,383.3L987.2,383.3z"/>
	<path class="st6" d="M1053.6,370.8l-23.9,76.7c-4.2,14.6-12,15-22.5,15h-2.6v-16.9h2.2c6.1,0,7,0,8.3-3.8l2.2-7.7l-18.5-63.2h17.9
		l9.1,38.8l9.9-38.8H1053.6z"/>
	<path class="st6" d="M1139.7,434.2h-16.8v-35.5c0-5.3-0.5-9.3-6-9.3c-5.8,0-5.3,7.8-5.3,12.6v32.2h-16.8v-35.5
		c0-5.3-0.5-9.3-5.8-9.3c-3.7,0-5.3,2.9-5.3,6.9v37.8h-16.7v-63.4h13.5l0.7,1.1c2.8-1.5,4.4-2.5,7.4-2.5c6.6,0,9.5,1.1,15.5,4.8
		c4.5-3,7.4-4.8,12.6-4.8c15.3,0,22.9,12.4,22.9,29.6v35.2H1139.7z"/>
</g>
<g>
	<path class="st10" d="M810.1,241.4v52H792v-4.6c-4.5,4.4-10.3,5.7-16.5,5.7c-27.5,0-38.4-22.5-38.4-46.4
		c0-24.3,11.1-46.4,38.9-46.4c15.5,0,24.1,6.1,33.1,18.3L794,233.4c-4.6-6.4-9.3-10.6-18-10.6c-14.8,0-17.3,13.4-17.3,25.1
		c0,11.9,2.6,25.1,17.6,25.1c8.5,0,12.2-6.1,12.2-13.2h-14.8v-18.4h36.5V241.4z"/>
	<path class="st10" d="M884.5,266.1h-36.1c0.8,5.2,4.6,9.4,10.6,9.4c5.3,0,10.1-3.2,13-6.2l12.2,12.8c-7.7,7.4-15.3,12.3-25.3,12.3
		c-19.6,0-31.6-15-31.6-33.3c0-18.5,11.4-33.6,31.1-33.6c15.9,0,26.2,13,26.2,32.7V266.1z M865.4,253.5c-0.9-4.1-3.3-6.9-8.2-6.9
		c-4.8,0-7.5,2.9-8.7,6.9H865.4z"/>
	<path class="st10" d="M927.7,294.7c-13.4,0-24.3-4.2-27.5-18.3l17.9-4.6c1.3,2.6,2.9,4.6,9.4,4.6c1.9,0,6.5,0.1,6.5-2.5
		c0-6.7-33.6-3.3-33.6-26.1c0-14.2,11.9-20.6,24.7-20.6c12.7,0,18.9,3,25.9,13.4l-15.7,8.7c-1.9-2.1-5-4.2-8.1-4.2
		c-2.1,0-6,0.4-6,2.9c0,6.1,33.2,2.1,33.2,25.3C954.3,287.6,940.4,294.7,927.7,294.7z"/>
	<path class="st10" d="M1003.7,245.9H996v26.5c0,2.4,1.6,4.1,5,4v17.2H993c-11.4,0-16.9-8.7-16.9-19.2v-28.4h-6.6v-17.2h6.6v-16.8
		h20v16.8h7.7V245.9z"/>
	<path class="st10" d="M1034.3,220.5c-6.1,0-11.2-5-11.2-11.2s5-11.2,11.2-11.2s11.2,4.9,11.2,11.2
		C1045.5,215.3,1040.6,220.5,1034.3,220.5z M1044.3,293.4h-20.2v-64.7h20.2V293.4z"/>
	<path class="st10" d="M1093.5,294.7c-21,0-30.2-14.2-30.2-33.6c0-19.3,9.1-33.6,30.2-33.6c21.2,0,30.3,14.3,30.3,33.6
		S1114.8,294.7,1093.5,294.7z M1109.7,201.7l-18.3,21.6h-14l11.8-21.6H1109.7z M1093.5,247.5c-8.2,0-9.4,7-9.4,13.6
		c0,6.7,1.2,13.6,9.5,13.6c8.1,0,9.3-6.9,9.3-13.6C1102.9,254.5,1101.7,247.5,1093.5,247.5z"/>
	<path class="st10" d="M1198.8,293.4h-20.5v-35.9c0-5.6-1.1-9.9-7.7-9.9c-4,0-6.7,3.2-6.7,7.5v38.2h-20.5v-64.7h16.5l0.8,1.1
		c2.4-1.1,6.9-2.6,10.7-2.6c19.7,0,27.5,12,27.5,30v36.3H1198.8z"/>
</g>
</svg>
